<svg width="16" height="16" viewBox="0 0 16 16" fill="none" xmlns="http://www.w3.org/2000/svg">
<path d="M12.773 10.652L11.7125 9.59001L12.773 8.52951C13.1237 8.18184 13.4023 7.76833 13.5928 7.3127C13.7833 6.85708 13.8819 6.36832 13.883 5.87448C13.8841 5.38064 13.7876 4.89145 13.5991 4.435C13.4106 3.97855 13.1338 3.56381 12.7846 3.21462C12.4355 2.86542 12.0207 2.58864 11.5643 2.40015C11.1078 2.21167 10.6186 2.1152 10.1248 2.11628C9.63095 2.11736 9.14219 2.21597 8.68656 2.40645C8.23094 2.59693 7.81742 2.87553 7.46976 3.22626L6.40926 4.28751L5.34801 3.22701L6.41001 2.16651C7.39463 1.18189 8.73005 0.628738 10.1225 0.628738C11.515 0.628738 12.8504 1.18189 13.835 2.16651C14.8196 3.15112 15.3728 4.48655 15.3728 5.87901C15.3728 7.27146 14.8196 8.60689 13.835 9.59151L12.7738 10.652H12.773ZM10.652 12.773L9.59076 13.8335C8.60614 14.8181 7.27072 15.3713 5.87826 15.3713C4.4858 15.3713 3.15038 14.8181 2.16576 13.8335C1.18114 12.8489 0.627991 11.5135 0.627991 10.121C0.627991 8.72855 1.18114 7.39312 2.16576 6.40851L3.22701 5.34801L4.28751 6.41001L3.22701 7.47051C2.87629 7.81817 2.59769 8.23168 2.4072 8.68731C2.21672 9.14293 2.11811 9.63169 2.11703 10.1255C2.11595 10.6194 2.21242 11.1086 2.4009 11.565C2.58939 12.0215 2.86617 12.4362 3.21537 12.7854C3.56457 13.1346 3.9793 13.4114 4.43575 13.5999C4.89221 13.7883 5.38139 13.8848 5.87523 13.8837C6.36907 13.8827 6.85783 13.784 7.31346 13.5936C7.76908 13.4031 8.18259 13.1245 8.53026 12.7738L9.59076 11.7133L10.652 12.7738V12.773ZM10.121 4.81776L11.1823 5.87901L5.87901 11.1815L4.81776 10.121L10.121 4.81851V4.81776Z" fill="#99A0AE"/>
</svg>
