<svg width="44" height="44" viewBox="0 0 44 44" fill="none" xmlns="http://www.w3.org/2000/svg">
<g filter="url(#filter0_d_61_7762)">
<path d="M2 21C2 9.95431 10.9543 1 22 1C33.0457 1 42 9.95431 42 21C42 32.0457 33.0457 41 22 41C10.9543 41 2 32.0457 2 21Z" fill="white"/>
<path d="M22 1.5C32.7696 1.5 41.5 10.2304 41.5 21C41.5 31.7696 32.7696 40.5 22 40.5C11.2304 40.5 2.5 31.7696 2.5 21C2.5 10.2304 11.2304 1.5 22 1.5Z" stroke="#E1E4EA"/>
<path d="M31 21C31 25.9706 26.9706 30 22 30C20.1041 30 18.3452 29.4138 16.8945 28.4127L13.8182 29.1818L14.6243 26.1588C13.6007 24.698 13 22.9192 13 21C13 16.0294 17.0294 12 22 12C26.9706 12 31 16.0294 31 21Z" fill="url(#paint0_linear_61_7762)"/>
<path fill-rule="evenodd" clip-rule="evenodd" d="M22 31.5C27.799 31.5 32.5 26.799 32.5 21C32.5 15.201 27.799 10.5 22 10.5C16.201 10.5 11.5 15.201 11.5 21C11.5 22.8832 11.9957 24.6505 12.8639 26.1787L11.5 31.5L16.9861 30.2278C18.476 31.0391 20.1842 31.5 22 31.5ZM22 29.8846C26.9068 29.8846 30.8846 25.9068 30.8846 21C30.8846 16.0932 26.9068 12.1154 22 12.1154C17.0932 12.1154 13.1154 16.0932 13.1154 21C13.1154 22.8945 13.7084 24.6506 14.7189 26.0927L13.9231 29.0769L16.9599 28.3177C18.392 29.3059 20.1284 29.8846 22 29.8846Z" fill="white"/>
<path d="M19.375 16.125C19.1254 15.6236 18.7424 15.668 18.3555 15.668C17.6641 15.668 16.5859 16.4962 16.5859 18.0376C16.5859 19.3008 17.1426 20.6836 19.0183 22.7522C20.8285 24.7485 23.207 25.7812 25.1817 25.746C27.1563 25.7109 27.5625 24.0117 27.5625 23.4378C27.5625 23.1835 27.4047 23.0566 27.296 23.0221C26.6231 22.6992 25.382 22.0974 25.0996 21.9844C24.8172 21.8713 24.6698 22.0243 24.5781 22.1074C24.3221 22.3515 23.8144 23.0707 23.6406 23.2324C23.4668 23.3942 23.2077 23.3123 23.0999 23.2512C22.7031 23.092 21.6272 22.6134 20.7696 21.7821C19.709 20.7539 19.6467 20.4002 19.4469 20.0853C19.2871 19.8334 19.4044 19.6789 19.4629 19.6113C19.6914 19.3477 20.007 18.9406 20.1485 18.7383C20.29 18.536 20.1776 18.2289 20.1102 18.0376C19.8203 17.2148 19.5747 16.5262 19.375 16.125Z" fill="white"/>
</g>
<defs>
<filter id="filter0_d_61_7762" x="0" y="0" width="44" height="44" filterUnits="userSpaceOnUse" color-interpolation-filters="sRGB">
<feFlood flood-opacity="0" result="BackgroundImageFix"/>
<feColorMatrix in="SourceAlpha" type="matrix" values="0 0 0 0 0 0 0 0 0 0 0 0 0 0 0 0 0 0 127 0" result="hardAlpha"/>
<feOffset dy="1"/>
<feGaussianBlur stdDeviation="1"/>
<feComposite in2="hardAlpha" operator="out"/>
<feColorMatrix type="matrix" values="0 0 0 0 0.0392157 0 0 0 0 0.0509804 0 0 0 0 0.0784314 0 0 0 0.03 0"/>
<feBlend mode="normal" in2="BackgroundImageFix" result="effect1_dropShadow_61_7762"/>
<feBlend mode="normal" in="SourceGraphic" in2="effect1_dropShadow_61_7762" result="shape"/>
</filter>
<linearGradient id="paint0_linear_61_7762" x1="29.875" y1="14.25" x2="13" y2="30" gradientUnits="userSpaceOnUse">
<stop stop-color="#5BD066"/>
<stop offset="1" stop-color="#27B43E"/>
</linearGradient>
</defs>
</svg>
