<svg width="16" height="16" viewBox="0 0 16 16" fill="none" xmlns="http://www.w3.org/2000/svg">
<path d="M4.43976 12.8705L4.98276 13.1877C5.89846 13.7218 6.93995 14.0022 8.00001 14C9.1867 14 10.3467 13.6481 11.3334 12.9888C12.3201 12.3295 13.0892 11.3925 13.5433 10.2961C13.9974 9.19974 14.1162 7.99334 13.8847 6.82946C13.6532 5.66557 13.0818 4.59647 12.2427 3.75736C11.4035 2.91824 10.3344 2.3468 9.17055 2.11529C8.00667 1.88378 6.80027 2.0026 5.70391 2.45672C4.60755 2.91085 3.67048 3.67988 3.01119 4.66658C2.3519 5.65327 2.00001 6.81331 2.00001 8C2.00001 9.077 2.28276 10.1097 2.81301 11.018L3.12951 11.561L2.63976 13.3617L4.43976 12.8705ZM0.50301 15.5L1.51701 11.774C0.848863 10.6286 0.497832 9.32599 0.50001 8C0.50001 3.85775 3.85776 0.5 8.00001 0.5C12.1423 0.5 15.5 3.85775 15.5 8C15.5 12.1423 12.1423 15.5 8.00001 15.5C6.67459 15.5021 5.3725 15.1514 4.22751 14.4838L0.50301 15.5ZM5.29326 4.481C5.39376 4.4735 5.49501 4.4735 5.59551 4.478C5.63601 4.481 5.67651 4.4855 5.71701 4.49C5.83626 4.5035 5.96751 4.57625 6.01176 4.67675C6.23526 5.18375 6.45276 5.6945 6.66276 6.20675C6.70926 6.32075 6.68151 6.467 6.59301 6.6095C6.53214 6.70586 6.46631 6.79898 6.39576 6.8885C6.31101 6.99725 6.12876 7.19675 6.12876 7.19675C6.12876 7.19675 6.05451 7.28525 6.08301 7.3955C6.09351 7.4375 6.12801 7.49825 6.15951 7.54925L6.20376 7.6205C6.39576 7.94075 6.65376 8.2655 6.96876 8.5715C7.05876 8.6585 7.14651 8.74775 7.24101 8.831C7.59201 9.14075 7.98951 9.3935 8.41851 9.581L8.42226 9.5825C8.48601 9.61025 8.51826 9.62525 8.61126 9.665C8.65776 9.6845 8.70576 9.70175 8.75451 9.7145C8.80489 9.72733 8.85794 9.72491 8.90694 9.70756C8.95595 9.6902 8.99869 9.65868 9.02976 9.617C9.57276 8.95925 9.62226 8.9165 9.62676 8.9165V8.918C9.66448 8.88282 9.7093 8.85611 9.7582 8.83968C9.8071 8.82325 9.85894 8.81748 9.91026 8.82275C9.95526 8.82575 10.001 8.834 10.043 8.85275C10.4413 9.035 11.093 9.31925 11.093 9.31925L11.5295 9.515C11.603 9.55025 11.6698 9.6335 11.672 9.71375C11.675 9.764 11.6795 9.845 11.6623 9.9935C11.6383 10.1877 11.5798 10.421 11.5213 10.5433C11.4812 10.6267 11.428 10.7031 11.3638 10.7697C11.2881 10.8492 11.2052 10.9215 11.1163 10.9858C11.0855 11.0089 11.0542 11.0314 11.0225 11.0532C10.9292 11.1124 10.8334 11.1675 10.7353 11.2183C10.5422 11.3208 10.3289 11.3797 10.1105 11.3907C9.97176 11.3982 9.83301 11.4087 9.69351 11.4012C9.68751 11.4012 9.26751 11.336 9.26751 11.336C8.2012 11.0555 7.21505 10.5301 6.38751 9.8015C6.21801 9.65225 6.06126 9.49175 5.90076 9.332C5.23326 8.66825 4.72926 7.952 4.42326 7.2755C4.26664 6.94347 4.18203 6.58205 4.17501 6.215C4.17192 5.75964 4.32077 5.31625 4.59801 4.955C4.65276 4.8845 4.70451 4.811 4.79376 4.72625C4.88901 4.63625 4.94901 4.58825 5.01426 4.55525C5.10102 4.51177 5.19566 4.48626 5.29251 4.48025L5.29326 4.481Z" fill="white"/>
</svg>
