<svg width="83" height="27" viewBox="0 0 83 27" fill="none" xmlns="http://www.w3.org/2000/svg">
<path d="M2.10214 13.2843C4.14823 11.3544 6.43782 9.70164 8.91242 8.36827C10.4769 7.48522 12.2518 6.57581 14.1713 5.66641C16.2208 4.6815 18.336 3.84036 20.5017 3.14906C21.6691 2.78113 22.8593 2.49054 24.0646 2.2792C25.3134 2.04479 26.5806 1.92348 27.851 1.91675C29.1527 1.89484 30.4524 2.02756 31.7229 2.31215C33.0105 2.58127 34.2555 3.02466 35.4239 3.63013L35.6145 3.73556C35.5619 3.78828 35.4962 3.83441 35.437 3.88713C33.2123 5.89046 31.6967 8.56383 31.1181 11.5051C30.8407 13 30.8698 14.5359 31.2036 16.0191C31.5522 17.5731 32.2922 19.0115 33.3532 20.1972C33.8936 20.8393 34.5327 21.391 35.2464 21.8314C36.0425 22.331 36.9418 22.642 37.8758 22.7409C38.7851 22.814 39.6995 22.6939 40.5593 22.3884C41.419 22.0829 42.2048 21.599 42.8652 20.9682C44.061 19.8248 44.8193 18.2975 45.0082 16.6518C45.1899 15.1457 45.0738 13.6185 44.6664 12.1575C44.2782 10.7173 43.6707 9.34585 42.8652 8.09149C41.8564 6.52829 40.5893 5.14883 39.1182 4.01234C39.4825 3.80291 39.8602 3.61798 40.2489 3.45879C42.5354 2.50294 45.0053 2.06852 47.4799 2.18694C49.7881 2.28166 52.0686 2.72602 54.2442 3.50492C56.1475 4.17526 57.9621 5.07595 59.6477 6.18701C61.0585 7.16426 62.3786 8.26705 63.5919 9.48196C65.5095 11.363 67.2157 13.449 68.6798 15.7028C69.674 17.2067 70.553 18.7841 71.3093 20.4212C71.9075 21.7392 72.2953 22.7145 72.578 23.4789C72.8344 24.1379 72.9856 24.5794 73.1171 24.9155L72.6766 24.6058C71.4211 23.7228 70.2707 22.9451 69.2846 22.3125C67.3125 21.0538 65.9978 20.3355 65.8335 20.5596C65.6691 20.7837 66.6552 21.7985 68.4038 23.3142C69.2781 24.0786 70.3364 24.9551 71.5328 25.9106L71.9864 26.273C72.1799 26.4311 72.3867 26.5722 72.6043 26.6948C72.7453 26.7712 72.8927 26.8351 73.0447 26.8859C73.238 26.9509 73.4393 26.9886 73.6429 26.9979C74.0623 27.0172 74.4768 26.9017 74.8262 26.6684C75.2524 26.3436 75.6137 25.9412 75.8911 25.4823L76.6208 24.474C80.565 18.8067 83.4114 13.9895 82.9512 13.7193C82.4911 13.4491 78.915 17.8182 74.9642 23.4855L74.4515 24.2368C74.4043 23.8524 74.3318 23.4715 74.2346 23.0967C73.9677 21.9733 73.6161 20.8718 73.1828 19.8018C72.4878 18.0331 71.6318 16.3323 70.6256 14.7209C69.1401 12.2965 67.375 10.0559 65.3667 8.04536C64.0504 6.71697 62.6133 5.51459 61.0742 4.45387C59.2185 3.21544 57.2155 2.21478 55.1119 1.47523C52.6876 0.606254 50.1447 0.11509 47.5719 0.0188579C44.7089 -0.108384 41.8538 0.409546 39.2168 1.53454C38.4557 1.85552 37.7289 2.25294 37.0476 2.72072C36.7912 2.57574 36.5348 2.43076 36.2719 2.30556C34.9526 1.64583 33.5508 1.16706 32.1042 0.882137C30.7026 0.600289 29.2731 0.483076 27.8445 0.53287C26.481 0.567577 25.1234 0.726388 23.7885 1.00734C22.5346 1.25248 21.2983 1.5805 20.0876 1.98924C17.8848 2.74149 15.7404 3.65557 13.6717 4.72405C11.7391 5.70375 9.98611 6.67247 8.41282 7.6302C5.94211 9.07766 3.6982 10.883 1.75374 12.9878C1.24595 13.5532 0.782239 14.1568 0.366702 14.7934C0.0971833 15.235 -0.0277176 15.4524 0.00515054 15.492C0.0380187 15.5315 0.715107 14.655 2.11529 13.2843H2.10214ZM37.0936 5.48189C37.2579 5.33032 37.4354 5.19193 37.6129 5.05355C39.0483 6.13773 40.2717 7.47816 41.2218 9.00749C41.9129 10.126 42.4295 11.3438 42.7535 12.6188C43.083 13.8669 43.1634 15.1681 42.9901 16.4475C42.832 17.6642 42.2554 18.7875 41.3599 19.6238C40.9249 20.0398 40.4074 20.3593 39.8411 20.5614C39.2748 20.7635 38.6723 20.8437 38.073 20.7968C36.8752 20.5831 35.7996 19.93 35.0557 18.9648C34.2264 18.014 33.6538 16.866 33.3926 15.6303C33.1427 14.4019 33.1427 13.1355 33.3926 11.9071C33.6362 10.672 34.0804 9.48545 34.7073 8.39463C35.329 7.2966 36.1313 6.31181 37.0804 5.48189" fill="#02C87C"/>
</svg>
