<svg width="22" height="24" viewBox="0 0 22 24" fill="none" xmlns="http://www.w3.org/2000/svg">
    <path d="M19.4002 9.6H20.6002C20.9185 9.6 21.2237 9.72643 21.4487 9.95147C21.6738 10.1765 21.8002 10.4817 21.8002 10.8V22.8C21.8002 23.1183 21.6738 23.4235 21.4487 23.6485C21.2237 23.8736 20.9185 24 20.6002 24H1.4002C1.08194 24 0.776711 23.8736 0.551667 23.6485C0.326623 23.4235 0.200195 23.1183 0.200195 22.8V10.8C0.200195 10.4817 0.326623 10.1765 0.551667 9.95147C0.776711 9.72643 1.08194 9.6 1.4002 9.6H2.6002V8.4C2.6002 7.2969 2.81747 6.20459 3.23961 5.18546C3.66175 4.16632 4.28049 3.24032 5.0605 2.4603C5.84051 1.68029 6.76652 1.06155 7.78565 0.639412C8.80479 0.217272 9.89709 0 11.0002 0C12.1033 0 13.1956 0.217272 14.2147 0.639412C15.2339 1.06155 16.1599 1.68029 16.9399 2.4603C17.7199 3.24032 18.3386 4.16632 18.7608 5.18546C19.1829 6.20459 19.4002 7.2969 19.4002 8.4V9.6ZM17.0002 9.6V8.4C17.0002 6.8087 16.3681 5.28258 15.2428 4.15736C14.1176 3.03214 12.5915 2.4 11.0002 2.4C9.4089 2.4 7.88277 3.03214 6.75756 4.15736C5.63234 5.28258 5.0002 6.8087 5.0002 8.4V9.6H17.0002ZM9.8002 14.4V19.2H12.2002V14.4H9.8002Z" fill="#525866"/>
</svg>
