<svg width="24" height="24" viewBox="0 0 24 24" fill="none" xmlns="http://www.w3.org/2000/svg">
    <path d="M12 24C5.3724 24 0 18.6276 0 12C0 5.3724 5.3724 0 12 0C18.6276 0 24 5.3724 24 12C24 18.6276 18.6276 24 12 24ZM12 21.6C14.5461 21.6 16.9879 20.5886 18.7882 18.7882C20.5886 16.9879 21.6 14.5461 21.6 12C21.6 9.45392 20.5886 7.01212 18.7882 5.21178C16.9879 3.41143 14.5461 2.4 12 2.4C9.45392 2.4 7.01212 3.41143 5.21178 5.21178C3.41143 7.01212 2.4 9.45392 2.4 12C2.4 14.5461 3.41143 16.9879 5.21178 18.7882C7.01212 20.5886 9.45392 21.6 12 21.6ZM10.8 12.9504C10.1683 12.6747 9.65083 12.1899 9.33454 11.5776C9.01826 10.9652 8.92247 10.2626 9.06328 9.58793C9.2041 8.91324 9.57293 8.30762 10.1078 7.8729C10.6426 7.43817 11.3108 7.20086 12 7.20086C12.6892 7.20086 13.3574 7.43817 13.8922 7.8729C14.4271 8.30762 14.7959 8.91324 14.9367 9.58793C15.0775 10.2626 14.9817 10.9652 14.6655 11.5776C14.3492 12.1899 13.8317 12.6747 13.2 12.9504V16.8H10.8V12.9504Z" fill="#525866"/>
</svg>
