<svg width="27" height="23" viewBox="0 0 27 23" fill="none" xmlns="http://www.w3.org/2000/svg">
    <path d="M24 13.4002H21.6V5.28579L12.0864 13.8058L2.4 5.2594V19.4002H14.4V21.8002H1.2C0.88174 21.8002 0.576515 21.6738 0.351472 21.4487C0.126428 21.2237 0 20.9185 0 20.6002V1.4002C0 1.08194 0.126428 0.776711 0.351472 0.551667C0.576515 0.326623 0.88174 0.200195 1.2 0.200195H22.8C23.1183 0.200195 23.4235 0.326623 23.6485 0.551667C23.8736 0.776711 24 1.08194 24 1.4002V13.4002ZM3.0132 2.6002L12.0732 10.5946L21.0024 2.6002H3.0132ZM20.4 23.0002L16.1568 18.757L17.8548 17.0602L20.4 19.6066L24.6432 15.3634L26.34 17.0602L20.4 23.0002Z" fill="#525866"/>
</svg>
