<svg width="20" height="20" viewBox="0 0 20 20" fill="none" xmlns="http://www.w3.org/2000/svg">
<path d="M10.1531 8.63672V11.5413H14.2718C14.091 12.4754 13.5482 13.2663 12.7342 13.7981L15.218 15.6868C16.6651 14.3777 17.5 12.455 17.5 10.1709C17.5 9.63908 17.4513 9.12767 17.3609 8.6368L10.1531 8.63672Z" fill="#4285F4"/>
<path d="M3.32115 6.63867C2.79938 7.64773 2.50024 8.78639 2.50024 10C2.50024 11.2136 2.79938 12.3523 3.32115 13.3613C3.32115 13.3681 5.86759 11.425 5.86759 11.425C5.71453 10.975 5.62406 10.4977 5.62406 9.99993C5.62406 9.50214 5.71453 9.02489 5.86759 8.57489L3.32115 6.63867Z" fill="#FBBC05"/>
<path d="M10.1529 5.48638C11.28 5.48638 12.2818 5.86819 13.0819 6.60457L15.2735 4.45685C13.9446 3.24323 12.2192 2.5 10.1529 2.5C7.16123 2.5 4.58008 4.1841 3.3208 6.63866L5.86716 8.57504C6.47242 6.80228 8.16308 5.48638 10.1529 5.48638Z" fill="#EA4335"/>
<path d="M5.86387 11.4277L5.30368 11.848L3.3208 13.3616C4.58008 15.8093 7.16107 17.5003 10.1527 17.5003C12.219 17.5003 13.9514 16.8321 15.2176 15.6866L12.7339 13.798C12.052 14.248 11.1824 14.5207 10.1527 14.5207C8.16292 14.5207 6.47233 13.2048 5.867 11.4321L5.86387 11.4277Z" fill="#34A853"/>
</svg>
