<svg width="34" height="34" viewBox="0 0 34 34" fill="none" xmlns="http://www.w3.org/2000/svg">
<path fill-rule="evenodd" clip-rule="evenodd" d="M6.70427 26.5868C9.06159 28.1619 11.8331 29.0026 14.6682 29.0026C16.5507 29.0026 18.4147 28.6319 20.1538 27.9115C21.4522 27.3737 22.6619 26.6489 23.7456 25.7623L31.2309 33.2476C31.3627 33.381 31.5199 33.4868 31.6931 33.5588C31.8664 33.6307 32.0523 33.6673 32.2398 33.6664C32.4274 33.6673 32.6133 33.6307 32.7866 33.5588C32.9598 33.4868 33.117 33.381 33.2488 33.2476C33.5162 32.9799 33.6663 32.617 33.6663 32.2386C33.6663 31.8603 33.5162 31.4974 33.2488 31.2297L25.7634 23.7443C26.6497 22.6609 27.3741 21.4515 27.9117 20.1536C28.6321 18.4144 29.0029 16.5504 29.0029 14.6679C29.0029 11.8328 28.1622 9.06135 26.5871 6.70402C25.0119 4.34669 22.7732 2.50938 20.1538 1.42442C17.5345 0.339463 14.6523 0.0555883 11.8716 0.608696C9.09098 1.1618 6.53678 2.52705 4.53204 4.53179C2.52729 6.53653 1.16205 9.09073 0.60894 11.8714C0.0558324 14.652 0.339707 17.5343 1.42467 20.1536C2.50962 22.7729 4.34694 25.0117 6.70427 26.5868ZM8.32243 5.13278C10.2008 3.8777 12.4091 3.20781 14.6682 3.20781C17.6975 3.20781 20.6028 4.4112 22.7448 6.55326C24.8869 8.69531 26.0903 11.6006 26.0903 14.6299C26.0903 16.8889 25.4204 19.0973 24.1653 20.9756C22.9102 22.854 21.1263 24.318 19.0392 25.1825C16.9521 26.047 14.6555 26.2732 12.4399 25.8325C10.2242 25.3917 8.18898 24.3039 6.59157 22.7065C4.99417 21.1091 3.90632 19.0739 3.4656 16.8582C3.02488 14.6425 3.25107 12.3459 4.11558 10.2588C4.98009 8.17173 6.44409 6.38785 8.32243 5.13278Z" fill="#16181A"/>
</svg>
