<svg width="40" height="40" viewBox="0 0 40 40" fill="none" xmlns="http://www.w3.org/2000/svg">
    <path opacity="0.8" d="M20.0002 36.6663C29.2049 36.6663 36.6668 29.2044 36.6668 19.9997C36.6668 10.7949 29.2049 3.33301 20.0002 3.33301C10.7954 3.33301 3.3335 10.7949 3.3335 19.9997C3.3335 29.2044 10.7954 36.6663 20.0002 36.6663Z" fill="#16181A"/>
    <path d="M18.3839 14.1161C17.8957 13.628 17.1043 13.628 16.6161 14.1161C16.128 14.6043 16.128 15.3957 16.6161 15.8839L20.7322 20L16.6161 24.1161C16.128 24.6043 16.128 25.3957 16.6161 25.8839C17.1043 26.372 17.8957 26.372 18.3839 25.8839L23.3839 20.8839C23.872 20.3957 23.872 19.6043 23.3839 19.1161L18.3839 14.1161Z" fill="white"/>
</svg>
