<svg width="40" height="40" viewBox="0 0 40 40" fill="none" xmlns="http://www.w3.org/2000/svg">
    <path opacity="0.8" d="M19.9998 3.33366C10.7951 3.33366 3.33317 10.7956 3.33317 20.0003C3.33317 29.2051 10.7951 36.667 19.9998 36.667C29.2046 36.667 36.6665 29.2051 36.6665 20.0003C36.6665 10.7956 29.2046 3.33366 19.9998 3.33366Z" fill="#16181A"/>
    <path d="M21.6161 25.8839C22.1043 26.372 22.8957 26.372 23.3839 25.8839C23.872 25.3957 23.872 24.6043 23.3839 24.1161L19.2678 20L23.3839 15.8839C23.872 15.3957 23.872 14.6043 23.3839 14.1161C22.8957 13.628 22.1043 13.628 21.6161 14.1161L16.6161 19.1161C16.128 19.6043 16.128 20.3957 16.6161 20.8839L21.6161 25.8839Z" fill="white"/>
</svg>
