<svg width="20" height="26" viewBox="0 0 20 26" fill="none" xmlns="http://www.w3.org/2000/svg">
<path d="M0.399902 25.9998C0.399902 23.4537 1.41133 21.0119 3.21168 19.2116C5.01203 17.4112 7.45382 16.3998 9.9999 16.3998C12.546 16.3998 14.9878 17.4112 16.7881 19.2116C18.5885 21.0119 19.5999 23.4537 19.5999 25.9998H17.1999C17.1999 24.0902 16.4413 22.2589 15.0911 20.9086C13.7408 19.5584 11.9095 18.7998 9.9999 18.7998C8.09034 18.7998 6.259 19.5584 4.90873 20.9086C3.55847 22.2589 2.7999 24.0902 2.7999 25.9998H0.399902ZM9.9999 15.1998C6.0219 15.1998 2.7999 11.9778 2.7999 7.9998C2.7999 4.0218 6.0219 0.799805 9.9999 0.799805C13.9779 0.799805 17.1999 4.0218 17.1999 7.9998C17.1999 11.9778 13.9779 15.1998 9.9999 15.1998ZM9.9999 12.7998C12.6519 12.7998 14.7999 10.6518 14.7999 7.9998C14.7999 5.34781 12.6519 3.1998 9.9999 3.1998C7.3479 3.1998 5.1999 5.34781 5.1999 7.9998C5.1999 10.6518 7.3479 12.7998 9.9999 12.7998Z" fill="#525866"/>
</svg>
