<svg width="15" height="16" viewBox="0 0 15 16" fill="none" xmlns="http://www.w3.org/2000/svg">
<path d="M0.75 15.5C0.551088 15.5 0.360322 15.421 0.21967 15.2803C0.0790178 15.1397 0 14.9489 0 14.75V1.25C0 1.05109 0.0790178 0.860322 0.21967 0.71967C0.360322 0.579018 0.551088 0.5 0.75 0.5H11.25C11.4489 0.5 11.6397 0.579018 11.7803 0.71967C11.921 0.860322 12 1.05109 12 1.25V3.5H10.5V2H1.5V14H10.5V12.5H12V14.75C12 14.9489 11.921 15.1397 11.7803 15.2803C11.6397 15.421 11.4489 15.5 11.25 15.5H0.75ZM10.5 11V8.75H5.25V7.25H10.5V5L14.25 8L10.5 11Z" fill="#FB3748"/>
</svg>
