<svg width="16" height="17" viewBox="0 0 16 17" fill="none" xmlns="http://www.w3.org/2000/svg">
<path d="M15.5 14H0.5V12.5H1.25V7.27325C1.25 3.53225 4.2725 0.5 8 0.5C11.7275 0.5 14.75 3.53225 14.75 7.27325V12.5H15.5V14ZM2.75 12.5H13.25V7.27325C13.25 4.361 10.8995 2 8 2C5.1005 2 2.75 4.361 2.75 7.27325V12.5ZM6.125 14.75H9.875C9.875 15.2473 9.67746 15.7242 9.32582 16.0758C8.97419 16.4275 8.49728 16.625 8 16.625C7.50272 16.625 7.02581 16.4275 6.67417 16.0758C6.32254 15.7242 6.125 15.2473 6.125 14.75Z" fill="#525866"/>
</svg>
