<svg width="16" height="16" viewBox="0 0 16 16" fill="none" xmlns="http://www.w3.org/2000/svg">
<path d="M1.50501 11.75C1.18797 11.2017 0.941514 10.6156 0.771515 10.0055C1.1415 9.81731 1.45221 9.53046 1.66929 9.17666C1.88636 8.82286 2.00134 8.41591 2.00149 8.00082C2.00165 7.58574 1.88698 7.1787 1.67017 6.82474C1.45336 6.47078 1.14285 6.18369 0.773015 5.99524C1.11204 4.76935 1.75756 3.64995 2.64876 2.74249C2.99683 2.96878 3.40073 3.09436 3.81575 3.10532C4.23077 3.11629 4.64073 3.01221 5.00026 2.80461C5.3598 2.59701 5.65488 2.29399 5.85286 1.92907C6.05084 1.56415 6.14399 1.15157 6.12201 0.736989C7.3536 0.418706 8.64594 0.419222 9.87727 0.738489C9.85548 1.15306 9.94882 1.56558 10.1469 1.9304C10.3451 2.29521 10.6403 2.59809 10.9999 2.80553C11.3595 3.01297 11.7695 3.11688 12.1845 3.10575C12.5995 3.09463 13.0033 2.9689 13.3513 2.74249C13.7855 3.18499 14.171 3.68824 14.495 4.24999C14.8198 4.81174 15.0628 5.39749 15.2285 5.99449C14.8585 6.18267 14.5478 6.46952 14.3307 6.82332C14.1137 7.17712 13.9987 7.58407 13.9985 7.99915C13.9984 8.41424 14.1131 8.82128 14.3299 9.17524C14.5467 9.5292 14.8572 9.81629 15.227 10.0047C14.888 11.2306 14.2425 12.35 13.3513 13.2575C13.0032 13.0312 12.5993 12.9056 12.1843 12.8947C11.7693 12.8837 11.3593 12.9878 10.9998 13.1954C10.6402 13.403 10.3451 13.706 10.1472 14.0709C9.94919 14.4358 9.85604 14.8484 9.87802 15.263C8.64643 15.5813 7.35409 15.5808 6.12276 15.2615C6.14455 14.8469 6.05121 14.4344 5.85308 14.0696C5.65495 13.7048 5.35975 13.4019 5.00014 13.1944C4.64054 12.987 4.23056 12.8831 3.81556 12.8942C3.40056 12.9054 2.99674 13.0311 2.64876 13.2575C2.20551 12.8052 1.82121 12.2987 1.50501 11.75ZM5.75001 11.897C6.54924 12.358 7.15015 13.0978 7.43752 13.9745C7.81177 14.0097 8.18751 14.0105 8.56176 13.9752C8.84932 13.0984 9.45051 12.3586 10.25 11.8977C11.0489 11.4355 11.9904 11.2846 12.8938 11.474C13.1113 11.168 13.2988 10.8417 13.4548 10.5005C12.8393 9.81307 12.4994 8.92265 12.5 7.99999C12.5 7.05499 12.8525 6.17224 13.4548 5.49949C13.2977 5.15835 13.1094 4.83246 12.8923 4.52599C11.9895 4.71522 11.0486 4.5646 10.25 4.10299C9.4508 3.64202 8.84988 2.90223 8.56252 2.02549C8.18827 1.99024 7.81251 1.98949 7.43826 2.02474C7.15071 2.9016 6.54952 3.64141 5.75001 4.10224C4.9511 4.56448 4.00962 4.71538 3.10626 4.52599C2.88919 4.8322 2.70136 5.15814 2.54527 5.49949C3.16069 6.18691 3.50068 7.07733 3.50001 7.99999C3.50001 8.94499 3.14752 9.82774 2.54527 10.5005C2.70237 10.8416 2.89067 11.1675 3.10777 11.474C4.01055 11.2848 4.95142 11.4354 5.75001 11.897ZM8.00002 10.25C7.40328 10.25 6.83098 10.0129 6.40902 9.59098C5.98707 9.16902 5.75001 8.59673 5.75001 7.99999C5.75001 7.40325 5.98707 6.83096 6.40902 6.409C6.83098 5.98704 7.40328 5.74999 8.00002 5.74999C8.59675 5.74999 9.16905 5.98704 9.59101 6.409C10.013 6.83096 10.25 7.40325 10.25 7.99999C10.25 8.59673 10.013 9.16902 9.59101 9.59098C9.16905 10.0129 8.59675 10.25 8.00002 10.25ZM8.00002 8.74999C8.19893 8.74999 8.38969 8.67097 8.53034 8.53032C8.671 8.38967 8.75002 8.1989 8.75002 7.99999C8.75002 7.80108 8.671 7.61031 8.53034 7.46966C8.38969 7.32901 8.19893 7.24999 8.00002 7.24999C7.8011 7.24999 7.61034 7.32901 7.46968 7.46966C7.32903 7.61031 7.25002 7.80108 7.25002 7.99999C7.25002 8.1989 7.32903 8.38967 7.46968 8.53032C7.61034 8.67097 7.8011 8.74999 8.00002 8.74999Z" fill="#335CFF"/>
</svg>
